<?xml version="1.0" standalone="no"?>
<!DOCTYPE svg PUBLIC "-//W3C//DTD SVG 20010904//EN"
 "http://www.w3.org/TR/2001/REC-SVG-20010904/DTD/svg10.dtd">
<svg version="1.0" xmlns="http://www.w3.org/2000/svg"
 width="398.000000pt" height="399.000000pt" viewBox="0 0 398.000000 399.000000"
 preserveAspectRatio="xMidYMid meet">

<g transform="translate(0.000000,399.000000) scale(0.100000,-0.100000)"
fill="#000000" stroke="none">
<path d="M940 3971 c-229 -50 -428 -158 -595 -326 -137 -136 -236 -298 -294
-480 -52 -163 -52 -167 -49 -1210 3 -962 3 -971 25 -1047 135 -475 491 -803
963 -889 110 -20 1890 -20 2000 0 443 80 804 394 939 816 52 163 52 166 49
1210 -3 967 -3 970 -25 1048 -125 440 -430 745 -870 870 -78 22 -79 22 -1068
24 -927 2 -995 1 -1075 -16z m817 -1031 c74 -17 155 -62 220 -123 l63 -59 64
59 c35 33 84 70 110 82 96 47 132 51 464 51 269 0 318 -2 345 -16 45 -23 76
-53 98 -96 18 -36 19 -69 19 -735 l0 -699 -22 -44 c-13 -24 -40 -58 -61 -74
l-39 -31 -366 -5 c-318 -4 -371 -7 -397 -22 -69 -38 -103 -89 -112 -171 -17
-146 -187 -145 -207 2 -11 84 -42 131 -111 169 -26 15 -79 18 -397 22 l-366 5
-39 31 c-21 16 -48 50 -60 74 l-23 44 0 699 c0 666 1 699 19 735 22 42 52 72
96 95 25 14 77 16 345 16 173 0 334 -4 357 -9z"/>
<path d="M1140 2101 l0 -651 333 0 c335 0 380 -4 447 -40 l21 -11 -3 558 -3
558 -26 55 c-33 70 -79 116 -149 149 -54 26 -58 26 -337 29 l-283 3 0 -650z"/>
<path d="M2383 2740 c-95 -19 -169 -79 -212 -170 l-26 -55 -3 -558 -3 -558 21
11 c67 36 112 40 448 40 l332 0 0 650 0 650 -257 -1 c-142 -1 -277 -5 -300 -9z"/>
</g>
</svg>
